<svg xmlns="http://www.w3.org/2000/svg" version="1.1" xmlns:xlink="http://www.w3.org/1999/xlink" xmlns:svgjs="http://svgjs.com/svgjs" id="Pattern799SvgRootPreview" width="100%" height="100%"><defs><pattern x="0" y="0" width="1" height="1" patternUnits="userSpaceOnUse" id="Pattern799Layer1"><g id="PatternRootContent1"><g id="Pattern799Layer1background"><rect width="1" height="1" id="Pattern799Background1" class="fill_color_1" fill="#fefebc"></rect></g></g></pattern><pattern x="0" y="0" width="129.5" height="224.79245283018867" patternUnits="userSpaceOnUse" id="Pattern799Layer2" patternTransform="matrix(1,0,0,1,0,0)" viewBox="0 0 129.5 224.79245283018867" preserveAspectRatio="xMidYMid slice"><g id="PatternRootContent2" transform="scale(2.443396226415094) rotate(0)"><g id="Pattern799Layer2Element2"><use xlink:href="#Pattern799Element2" x="16.287185668945312" y="-54.79422950744629" transform="translate(53, -23) scale(1) translate(-53, 23) rotate(0, 53, -23)"></use><use xlink:href="#Pattern799Element2" x="-36.71281433105469" y="-54.79422950744629" transform="translate(0, -23) scale(1) translate(0, 23) rotate(0, 0, -23)"></use><use xlink:href="#Pattern799Element2" x="-10.212814331054688" y="-8.794229507446289" transform="translate(26.5, 23) scale(1) translate(-26.5, -23) rotate(0, 26.5, 23)"></use><use xlink:href="#Pattern799Element2" x="-63.21281433105469" y="-8.794229507446289" transform="translate(-26.5, 23) scale(1) translate(26.5, -23) rotate(0, -26.5, 23)"></use><use xlink:href="#Pattern799Element2" x="42.78718566894531" y="-8.794229507446289" transform="translate(79.5, 23) scale(1) translate(-79.5, -23) rotate(0, 79.5, 23)"></use><use xlink:href="#Pattern799Element2" x="16.287185668945312" y="37.20577049255371" transform="translate(53, 69) scale(1) translate(-53, -69) rotate(0, 53, 69)"></use><use xlink:href="#Pattern799Element2" x="-36.71281433105469" y="37.20577049255371" transform="translate(0, 69) scale(1) translate(0, -69) rotate(0, 0, 69)"></use><use xlink:href="#Pattern799Element2" x="-10.212814331054688" y="83.20577049255371" transform="translate(26.5, 115) scale(1) translate(-26.5, -115) rotate(0, 26.5, 115)"></use><use xlink:href="#Pattern799Element2" x="-10.212814331054688" y="83.20577049255371" transform="translate(26.5, 115) scale(1) translate(-26.5, -115) rotate(0, 26.5, 115)"></use></g></g></pattern><symbol id="Pattern799Element2"><g class="fill_color_3" fill="#262c26"><path d="M18.713,63.58845901489258l12,0l0,-4L18.713,59.58845901489258l0,4Zm0,-24l0,4l36,0l0,-4L18.713,39.58845901489258Zm0,14l24,0l0,-4L18.713,49.58845901489258l0,4Z" transform="matrix(1,0,0,1,0,0)"></path><path d="M18,-3.066247700189706e-9l-6,10.392l3.464,2L21.464,2l-3.464,-2Zm20.785,12l-3.464,-2l-18,31.177l3.464,2L38.785,12Zm-12.124,-7l-12,20.785l3.464,2L30.124,7l-3.464,-2Z" transform="matrix(1,0,0,1,0,0)"></path><path d="M73.426,31.17691421508789l-6,-10.392l-3.464,2L69.962,33.17691421508789l3.464,-2Zm-20.785,12l3.464,-2l-18,-31.177l-3.464,2L52.641,43.17691421508789Zm12.124,-7l-12,-20.785l-3.464,2L61.301,38.17691421508789l3.464,-2Z" transform="matrix(1,0,0,1,0,0)"></path></g></symbol></defs><rect width="100%" height="100%" id="Pattern799RctLayer1" fill="url(#Pattern799Layer1)"></rect><rect width="100%" height="100%" id="Pattern799RctLayer2" fill="url(#Pattern799Layer2)"></rect></svg>