<svg xmlns="http://www.w3.org/2000/svg" version="1.1" xmlns:xlink="http://www.w3.org/1999/xlink" xmlns:svgjs="http://svgjs.com/svgjs" id="BgenPttrnSvgRootPreview" width="100%" height="100%"><defs><pattern x="0" y="0" width="1" height="1" patternUnits="userSpaceOnUse" id="BgenPttrnLayer1"><g id="PatternRootContent1"><g id="BgenPttrnLayer1background"><rect width="1" height="1" id="BgenPttrnBackground1" class="color_1 fill_color_1" fill="#d4d6d4"></rect></g></g></pattern><pattern x="0" y="0" width="42" height="56" patternUnits="userSpaceOnUse" id="BgenPttrnLayer2" patternTransform="matrix(1,0,0,1,0,0)"><g id="PatternRootContent2"><g id="BgenPttrnLayer2Element1"><use xlink:href="#BgenPttrnElement1" x="22" y="-34" transform="translate(42, -14) scale(1) translate(-42, 14) rotate(0, 42, -14)"></use><use xlink:href="#BgenPttrnElement1" x="-20" y="-34" transform="translate(0, -14) scale(1) translate(0, 14) rotate(0, 0, -14)"></use><use xlink:href="#BgenPttrnElement1" x="1" y="-6" transform="translate(21, 14) scale(1) translate(-21, -14) rotate(0, 21, 14)"></use><use xlink:href="#BgenPttrnElement1" x="-41" y="-6" transform="translate(-21, 14) scale(1) translate(21, -14) rotate(0, -21, 14)"></use><use xlink:href="#BgenPttrnElement1" x="22" y="22" transform="translate(42, 42) scale(1) translate(-42, -42) rotate(0, 42, 42)"></use><use xlink:href="#BgenPttrnElement1" x="-20" y="22" transform="translate(0, 42) scale(1) translate(0, -42) rotate(0, 0, 42)"></use><use xlink:href="#BgenPttrnElement1" x="1" y="50" transform="translate(21, 70) scale(1) translate(-21, -70) rotate(0, 21, 70)"></use><use xlink:href="#BgenPttrnElement1" x="1" y="50" transform="translate(21, 70) scale(1) translate(-21, -70) rotate(0, 21, 70)"></use></g></g></pattern><symbol id="BgenPttrnElement1"><polygon points="40,5.889 20,15.889 0,5.889 0,24.111 20,34.111 40,24.111" class="color_2 fill_color_2" fill="#c4c4c4"></polygon></symbol></defs><rect width="100%" height="100%" id="BgenPttrnRctLayer1" fill="url(#BgenPttrnLayer1)"></rect><rect width="100%" height="100%" id="BgenPttrnRctLayer2" fill="url(#BgenPttrnLayer2)"></rect></svg>