<svg xmlns="http://www.w3.org/2000/svg" version="1.1" xmlns:xlink="http://www.w3.org/1999/xlink" xmlns:svgjs="http://svgjs.com/svgjs" id="Pattern583SvgRootPreview" width="100%" height="100%"><defs><pattern x="0" y="0" width="1" height="1" patternUnits="userSpaceOnUse" id="Pattern583Layer1"><g id="PatternRootContent1"><g id="Pattern583Layer1background"><rect width="1" height="1" id="Pattern583Background1" class="fill_color_1" fill="#f8f8f5"></rect></g></g></pattern><pattern x="0" y="0" width="19" height="38" patternUnits="userSpaceOnUse" id="Pattern583Layer2" patternTransform="matrix(1.77,0,0,1.77,0,0)"><g id="PatternRootContent2"><g id="Pattern583Layer2Element1"><use xlink:href="#Pattern583Element1" x="7" y="-21.5" transform="translate(15.229999542236328, -13.270000457763672) scale(1) translate(-15.229999542236328, 13.270000457763672) rotate(0, 15.229999542236328, -13.270000457763672)"></use><use xlink:href="#Pattern583Element1" x="-12" y="-21.5" transform="translate(-3.770000457763672, -13.270000457763672) scale(1) translate(3.770000457763672, 13.270000457763672) rotate(0, -3.770000457763672, -13.270000457763672)"></use><use xlink:href="#Pattern583Element1" x="-2.5" y="-2.5" transform="translate(5.729999542236328, 5.729999542236328) scale(1) translate(-5.729999542236328, -5.729999542236328) rotate(0, 5.729999542236328, 5.729999542236328)"></use><use xlink:href="#Pattern583Element1" x="-21.5" y="-2.5" transform="translate(-13.270000457763672, 5.729999542236328) scale(1) translate(13.270000457763672, -5.729999542236328) rotate(0, -13.270000457763672, 5.729999542236328)"></use><use xlink:href="#Pattern583Element1" x="16.5" y="-2.5" transform="translate(24.729999542236328, 5.729999542236328) scale(1) translate(-24.729999542236328, -5.729999542236328) rotate(0, 24.729999542236328, 5.729999542236328)"></use><use xlink:href="#Pattern583Element1" x="7" y="16.5" transform="translate(15.229999542236328, 24.729999542236328) scale(1) translate(-15.229999542236328, -24.729999542236328) rotate(0, 15.229999542236328, 24.729999542236328)"></use><use xlink:href="#Pattern583Element1" x="-12" y="16.5" transform="translate(-3.770000457763672, 24.729999542236328) scale(1) translate(3.770000457763672, -24.729999542236328) rotate(0, -3.770000457763672, 24.729999542236328)"></use><use xlink:href="#Pattern583Element1" x="-2.5" y="35.5" transform="translate(5.729999542236328, 43.72999954223633) scale(1) translate(-5.729999542236328, -43.72999954223633) rotate(0, 5.729999542236328, 43.72999954223633)"></use><use xlink:href="#Pattern583Element1" x="-2.5" y="35.5" transform="translate(5.729999542236328, 43.72999954223633) scale(1) translate(-5.729999542236328, -43.72999954223633) rotate(0, 5.729999542236328, 43.72999954223633)"></use></g></g></pattern><symbol id="Pattern583Element1"><path d="M12,3.77L11.25,4.61C11.25,4.61 9.97,6.06 8.68,7.94C7.39,9.82 6,12.07 6,14.23A6,6 0 0,0 12,20.23A6,6 0 0,0 18,14.23C18,12.07 16.61,9.82 15.32,7.94C14.03,6.06 12.75,4.61 12.75,4.61L12,3.77M12,6.9C12.44,7.42 12.84,7.85 13.68,9.07C14.89,10.83 16,13.07 16,14.23C16,16.45 14.22,18.23 12,18.23C9.78,18.23 8,16.45 8,14.23C8,13.07 9.11,10.83 10.32,9.07C11.16,7.85 11.56,7.42 12,6.9Z" class="fill_color_2" fill="#76cbdc"></path></symbol></defs><rect width="100%" height="100%" id="Pattern583RctLayer1" fill="url(#Pattern583Layer1)"></rect><rect width="100%" height="100%" id="Pattern583RctLayer2" fill="url(#Pattern583Layer2)"></rect></svg>